<svg width="110" height="110" viewBox="0 0 110 110" fill="none" xmlns="http://www.w3.org/2000/svg">
<rect width="110" height="110" fill="white"/>
<path d="M82.0352 31.6162H63.5566L87.6094 92H79.7373C78.8414 92 78.1053 91.7761 77.5293 91.3281C76.9533 90.8801 76.5372 90.3036 76.2812 89.5996L70.1855 73.6162H60.1475V92H49.9707V73.6162H39.8018L33.7051 89.5996C33.4811 90.2076 33.065 90.7683 32.457 91.2803C31.8491 91.7601 31.1128 92 30.249 92H22.377L46.4297 31.6162H27.9873V23.0723H82.0352V31.6162ZM60.1475 66.3203H67.4014L60.1475 47.3496V66.3203ZM42.6338 66.3203H49.9707V47.1113L42.6338 66.3203Z" fill="black"/>
</svg>
